<svg viewBox="0.11 0.12 799.73 759.1191100689551" xmlns="http://www.w3.org/2000/svg" width="2500" height="2373"><path d="M746.73 327.08c34.06 43.74 53.11 98.96 53.11 155.42 0 135.37-105.55 245.23-234.95 245.23-15.35-.03-30.67-1.6-45.71-4.7s-29.73-7.71-43.85-13.75a229.25 229.25 0 0 1-40.25-22.26 228.945 228.945 0 0 1-35.03-29.87 229.996 229.996 0 0 1-75.39 52.11 230.531 230.531 0 0 1-43.9 13.76c-15.05 3.1-30.38 4.68-45.74 4.71C105.37 727.73.11 617.58.11 482.5c0-109.62 69.35-202.55 164.32-233.8v-3.34C164.43 109.99 269.64.12 399.38.12c129.64 0 234.81 110.11 234.81 245.19v2.87c11.04 3.61 21.8 8.03 32.19 13.22 10.39 5.2 20.39 11.16 29.91 17.84 9.52 6.67 18.54 14.04 26.98 22.05s16.28 16.63 23.46 25.79zM564.89 665.72c97.02 0 175.79-82.21 176.03-182.98 0-77.33-47.1-145.75-114.92-172.02a247.711 247.711 0 0 1-33.83 74.93 246.005 246.005 0 0 1-25.73 32.19 245.854 245.854 0 0 1-30.7 27.43c-5.29 3.93-11.24 5.74-17.19 5.74-9.24 0-18.53-4.69-24.25-13.01a31.723 31.723 0 0 1-4.67-10.96 31.66 31.66 0 0 1-.32-11.92c.64-3.96 2.03-7.76 4.08-11.2 2.06-3.44 4.74-6.46 7.92-8.89a186.213 186.213 0 0 0 54.46-65.94c6.39-12.92 11.26-26.54 14.52-40.59s4.88-28.43 4.84-42.86c0-101.06-78.78-183.26-175.51-183.26-94.54 0-171.61 78.04-175.61 175.65 3.77-.23 7.48-.23 11.24-.23 6.89-.01 13.77.29 20.63.91s13.69 1.55 20.46 2.8a226.185 226.185 0 0 1 39.74 11.12c4.95 1.82 25.15 9.62 38.1 21.05 2.99 2.7 5.43 5.94 7.2 9.56 1.77 3.61 2.84 7.54 3.14 11.56s-.18 8.06-1.39 11.9a31.63 31.63 0 0 1-5.71 10.53 28.688 28.688 0 0 1-8.93 7.47c-3.46 1.85-7.26 2.97-11.16 3.28s-7.83-.18-11.53-1.45a28.7 28.7 0 0 1-10.01-5.95c-2.95-2.59-12.48-7.23-19.24-9.62-.24 0-.43-.24-.67-.24-19.52-7.27-39.91-11.2-60.86-11.2-96.78 0-175.61 82.26-175.61 183.22C59.41 583.75 138.24 666 235.02 666a170.9 170.9 0 0 0 35.92-3.89 171.517 171.517 0 0 0 65.51-29.68 172.41 172.41 0 0 0 26.69-24.47c-20.91-36.7-33.15-79.67-33.15-125.46a30.43 30.43 0 0 1 8.45-21.69c2.76-2.87 6.06-5.17 9.71-6.76 3.65-1.6 7.58-2.45 11.56-2.51 3.96.09 7.87.95 11.5 2.55s6.92 3.9 9.67 6.76c2.75 2.87 4.92 6.25 6.38 9.96a30.48 30.48 0 0 1 2.12 11.64c0 101.06 78.78 183.27 175.51 183.27z" fill="#f3702a"/></svg>